/* XPM */
static char *_447e89476af4f4bad928b67640bee7fcx48BRImwN3zFSx2[] = {
/* columns rows colors chars-per-pixel */
"54 64 251 2 ",
"   c #0A3B3F",
".  c #796A3B",
"X  c #635936",
"o  c #094C54",
"O  c #0C545E",
"+  c #175559",
"@  c #174D51",
"#  c #285253",
"$  c #095669",
"%  c #155B6B",
"&  c #185966",
"*  c #115D72",
"=  c #285B63",
"-  c #295E70",
";  c #18616D",
":  c #196573",
">  c #0F6272",
",  c #26666C",
"<  c #276B77",
"1  c #366D74",
"2  c #397076",
"3  c #346D6E",
"4  c #3B6152",
"5  c #57674F",
"6  c #747455",
"7  c #48787D",
"8  c #52736F",
"9  c #697967",
"0  c #757B68",
"q  c #455F56",
"w  c #A46D35",
"e  c #B67B37",
"r  c #AD7135",
"t  c #8B794E",
"y  c #AD7448",
"u  c #867B63",
"i  c #66836C",
"p  c #7A8669",
"a  c #698677",
"s  c #778977",
"d  c #75937C",
"f  c #B78737",
"g  c #918552",
"h  c #B78647",
"j  c #A8945D",
"k  c #B89658",
"l  c #AE8B4E",
"z  c #B5A259",
"x  c #878666",
"c  c #99936B",
"v  c #848C76",
"b  c #958C76",
"n  c #8C9878",
"m  c #979877",
"M  c #9A8C69",
"N  c #A69868",
"B  c #A39A78",
"V  c #B79865",
"C  c #9BA47F",
"Z  c #B8A569",
"A  c #A8A37A",
"S  c #B7A77B",
"D  c #B7B37E",
"F  c #C59A57",
"G  c #C4914A",
"H  c #D6A55C",
"J  c #CDA658",
"K  c #CD9D70",
"L  c #C6A565",
"P  c #DAA767",
"I  c #C5A674",
"U  c #D9B275",
"Y  c #D5B074",
"T  c #E3B16E",
"R  c #E1B45F",
"E  c #E5C271",
"W  c #3B7985",
"Q  c #346E82",
"!  c #447B88",
"~  c #5D7E83",
"^  c #3C8089",
"/  c #4A8488",
"(  c #5A868B",
")  c #538894",
"_  c #519299",
"`  c #6A8685",
"'  c #738C85",
"]  c #6C9388",
"[  c #789689",
"{  c #738D91",
"}  c #639796",
"|  c #659997",
" . c #6C9996",
".. c #649798",
"X. c #669A9A",
"o. c #6B9D9C",
"O. c #6F9598",
"+. c #7B9D94",
"@. c #729E9D",
"#. c #759896",
"$. c #628890",
"%. c #6EA09D",
"&. c #73A19F",
"*. c #7BA49E",
"=. c #7BA998",
"-. c #649CA2",
";. c #6A9EA1",
":. c #6795A1",
">. c #789DA7",
",. c #66A0A6",
"<. c #6BA1A4",
"1. c #6CA3AA",
"2. c #69A3AA",
"3. c #74A3A2",
"4. c #7BA5A3",
"5. c #74ABA5",
"6. c #7BA9A5",
"7. c #74A6AB",
"8. c #7BA6AD",
"9. c #73A9AC",
"0. c #7CABAB",
"q. c #77AAB4",
"w. c #79B2BA",
"e. c #6DABB4",
"r. c #5D99A1",
"t. c #899986",
"y. c #969A86",
"u. c #879D96",
"i. c #9E9E92",
"p. c #A79E86",
"a. c #87A38C",
"s. c #9AA289",
"d. c #85A395",
"f. c #8CA393",
"g. c #83A59B",
"h. c #89A99C",
"j. c #95A797",
"k. c #91B59D",
"l. c #A7A586",
"z. c #B8AA88",
"x. c #B9B38B",
"c. c #A7AB97",
"v. c #A8B698",
"b. c #B7B698",
"n. c #AFB08F",
"m. c #83A5A3",
"M. c #8AA4A4",
"N. c #84ABA4",
"B. c #83ACAB",
"V. c #8AABAB",
"C. c #89A8A8",
"Z. c #91ACAB",
"A. c #95AAA7",
"S. c #86B1AD",
"D. c #89B3A7",
"F. c #94B5AE",
"G. c #98B5A6",
"H. c #83ABB3",
"J. c #8CADB3",
"K. c #87A8B7",
"L. c #93ADB6",
"P. c #8CB4B3",
"I. c #87B5B8",
"U. c #94B5B4",
"Y. c #93BBB6",
"T. c #9BBBB6",
"R. c #94BBBA",
"E. c #9ABCBC",
"W. c #98B4B7",
"Q. c #A6B3A9",
"!. c #B5BDAE",
"~. c #BBBFAD",
"^. c #B7BBA4",
"/. c #ADBEB4",
"(. c #A2BEBC",
"). c #ABBFBA",
"_. c #A2B9B4",
"`. c #B3BEB3",
"'. c #BABFB1",
"]. c #B7BEBC",
"[. c #839CA1",
"{. c #CBBC95",
"}. c #CBBD9B",
"|. c #C3B998",
" X c #D1BE99",
".X c #C5B189",
"XX c #C3BDA2",
"oX c #C3BEAC",
"OX c #C9BEA5",
"+X c #C2BFB1",
"@X c #EBBE85",
"#X c #8FC1B9",
"$X c #9DC3BD",
"%X c #95C2BD",
"&X c #B5C0AD",
"*X c #BDC1AE",
"=X c #BEC3A5",
"-X c #ADC0B6",
";X c #A4C2BC",
":X c #ACC2BB",
">X c #A4C1B6",
",X c #B4C1B5",
"<X c #BAC4B2",
"1X c #B9C2B5",
"2X c #B9C5B5",
"3X c #BBC1B1",
"4X c #B2C2B9",
"5X c #B6C2B9",
"6X c #B6C5B9",
"7X c #B2C3BC",
"8X c #B9C4B9",
"9X c #B9C9BB",
"0X c #CCC29C",
"qX c #C5C39D",
"wX c #D9C59C",
"eX c #D6C485",
"rX c #C4C2A3",
"tX c #CAC4A4",
"yX c #C2C1AA",
"uX c #C2C2AC",
"iX c #CBC4AC",
"pX c #C5CBAA",
"aX c #CCC9AC",
"sX c #C7C9A4",
"dX c #C1C2B2",
"fX c #C7CCB6",
"gX c #D0CCAC",
"hX c #E7DAB1",
"jX c #F1CF85",
"kX c #97BBC2",
"lX c #86AFC1",
"zX c #A4BFC3",
"xX c #A9BFC3",
"cX c #9DC1C3",
"vX c #9AC3C6",
"bX c #88C4CC",
"nX c #A5C3C4",
"mX c #AAC4C2",
"MX c #A6C5C8",
"NX c #A3C9C8",
"BX c #B7C9C2",
"VX c #BCD4CA",
"CX c #B4D4D1",
"ZX c #C4CCC3",
"AX c #C4D4C8",
"SX c #D4DBC8",
"DX c #DFE0C1",
"FX c #E8E7C9",
"GX c #E8EBD6",
"HX c #F6F3D9",
"JX c #F1F4E1",
/* pixels */
"~.~.*X*X*X*X*X~.*X*X*X*X*X*X*X*X*X*X3X3XdXdXdXdX+X+X+X+X+X+X+XoXoXoXoXoXyXyXyXyXyXyX*X*X*X*X*X*X*X*X*X*XuXuX",
"~.~.*X*X*X*X*X~.~.~.*X*X*X*X*X*X*X*X3X3XdX3XdXdX3X3X+X+X+X+X+X+XoXuXuXuXuXuXoXyXuX*X*X*X*X*X*X*X*X*X*X*XuXuX",
"~.~.~.*X*X*X~.~.~.~.~.~.~.*X*X*X*X*X*X*X*X*X3X3X3X3X3X3X3X3X+X3X~.~.~.~.~.~.~.*X*X*X*X*X*X*X*X*X*X*X*X*X<X<X",
"~.~.~.~.~.~.~.~.~.~.~.~.~.~.~.~.*X*X*X*X*X*X3X3X3X3X3X3X3X3X3X3X3X3X3X3X3X3X*X*X*X*X*X*X*X*X*X*X*X*X*X*X*X*X",
"~.~.!.!.~.~.3X3X~.3X3X3X3X3X&X&X*X*X*X*X*X&X3X3X3X3X3X3X3X3X3X3X1X1X1X3X3X3X3X3X3X&X*X*X*X*X*X*X&X&X3X3X<X3X",
"'.!.!.!.!.&X'.3X'.3X'.3X'.3X3X3X3X&X&X&X3X3X3X3X<X<X<X<X<X<X<X2X1X,X1X1X1X1X1X3X3X3X3X&X&X*X*X&X&X&X3X3X<X<X",
"'.!.'.!.'.!.'.,X3X,X1X,X1X,X3X3X1X1X3X3X3X3X<X<X<X<X<X<X2X2X2X2X8X6X8X8X8X8X8X2X1X,X,X3X3X&X&X&X3X3X3X3X1X<X",
"'.`.`.`.`.`.`.,X,X,X,X,X,X,X1X,X8X8X1X1X1X1X1X1X<X2X2X2X2X2X2X2X8X6X6X6X6X6X6X6X,X,X,X,X3X3X3X3X3X,X1X3X1X2X",
"`.`.`.`.`.,X`.,X,X,X,X,X5X,X,X,X5X5X5X5X8X1X1X3X1X1X1X2X2X,X1X,X2X2X2X8X8X6X6X6X5X,X,X,X,X,X3X3X,X,X,X,X,X,X",
"`./.`./.`.-X`.,X,X,X,X,X,X7X,X7X7X5X5X5X8X1X1X3X3X3X3X3X3X3X3X3X3X<X<X2X2X6X6X6X6X6X5X,X,X2X2X,X,X,X5X,X,X,X",
"/././././.-X-X-X,X-X,X,X7X7X7X7X7XmX7X5X5X1X1X1X~.~.~.~.~.3X3X*X*X*X*X3X<X2X2X5X6X6X7X7X5X6X,X5X,X,X5X,X5X,X",
"/././././././.-X-X-X-X,X7X7X7X-X:XmX7X5X5X1X3XdX~.oXoXoXoXoXoXyXyXyXyX*X*X<X,X2X,X,X7X7X7X,X7X7X,X,X,X,X,X,X",
"/././.-X-X-X-X-X-X-X-X-X-X-X-X-X:X:X7X7X,X3X*XyXXXXXOXOXOXOXOXOXrXrXrXyX*X*X3X,X,X7X7X7X7X7X7X7X7X7X7X7X7X7X",
"/./././.-X-X-X-X-X-X-X-X-X-X-X:X:X:X-X,X,X~.~.XX|.|.}.}.}.}.}.}.}.0XqXrXyX*X<X2X2X4X7X4X7X7X7X7X7X7X7X7X7X7X",
").).).).).-X-X-X-X-X-X-X-X-X:X:X-X-X-X,X&X~.^.b.}.}.{.{.}. X X X}.0X0XtXrXyX*X<X6X4X7X7X7X7XBX7X7X7X:X:X7X7X",
"-X-X-X-X).).-X-X:X:X:X:X:X-X:X-X-X-X,X&X^.^.b.|.|.{.{.{.{.{.0X0X0X0X0XtXtXuXuX3X3X,X5X7X:X:XmXmX:X:X:X:X:X:X",
">X>X;X;X-X-X).xXxXmXnX;X;X;X;X-X/./.<XfXb.b.qX|.{.{.wX}.}.qX|.qXqXtXtXsXiXiXiXiX+X+X'.,X:XmXNXNXmX:XmX:XmX:X",
">X>X>X;X-X:X:XxXmXMXMX;X;X>X>X-X,XGXJXGXFXqXx.|.{.|.{.{.0XgXqXsXsXsXsXsXiXiXiXiXoXoX'.,X-XnXNXNXmXmXmX:XmXmX",
"(.(.;X;X;X;X;X;XzXnXnX;X;X-X-X,XGXJXGXFXFXDXgXXXXXOXgXiXtXqX|.sXtXsXaXaXiXiXiXsXiXuX3X,X-XmXMXMXmXmXmXmXmXmX",
"zXzX;X;X;X;X;X;XE.$X$X;X-X-X`.^.aXFXx 5 b.^.v i.~.~.oXoXiXiXtXtXaXaXaXaXaXaXpXpXpXuX3X,X-XmXMXMXmXmXmXmXmXmX",
"zXzXnXnX;X;X;X$X$X$X$X>X-X/.Q.c.x l.n.m v t.Q./.`.].dXdX+XoXiXgXaXaXaXaXaXpXpXpXsXuX*X,X7X:XMXMXMXMXMXmXMXnX",
"zXzXnXnX;X$X$X$X$X$X$X;X:X).Q.c.|.hXHXGXAXBXBX_.W.).].ZXZXfXfXdXfXfXfXfXpXpXpXsXsXrX=X&X,X:XmXMXMXMXMXMXMXMX",
"cXcXnXnX$X$X$X$X%XcXcXcX;X:X)./.yXFXSX<XAXBXT.E.V.[.{ u./.BXAX8XfXfXfXfXfXpXpXsXrXrX=X&X,X:XmXMXMXMXMXMXnXMX",
"cXcXcX$X$X$X$X$X%XcXvXcXE.E.(.).^.fXSXAX(.E.kXH.8.>.~ 8 8 ` T.CXVXBXZXfXfXfXpXsXrXrX=X&X`.:XMXMXnXnXnXnXnXnX",
"vXvXcX$XE.T.E.;XE.NXR.R.NXE.$X;X/.BXBXZ.{ kXkXH.H.7 7 ( =   # 7 U.VXAX9X9XfXuXXXtXOX^.~.,X:XnXcXcXcXcXcXcXcX",
"%X%X%X$X$X(.(.zXnXkXnXNXkXR.;XF.7X7X' ` J.kX:...2 ! / 3 @ + , + @ 7 T.VXVX8XdXfXoXoXuX3X/._.E.cXcXcXcXcXcXcX",
"#X#XY.E.E.(.E.T.L.V.C.V.W.T.D.d.u./.W.E.vXH.:.! ) / , o o : : o + @ = $.C.BXAX1X+X~.!.Q._.(.nXNXcXcXcXcXcXcX",
"#XY.Y.Y.E.W.V.m.+.{ ' ` u.G.t.v v j.Q._.J.>.:.W & + o O % > > : & + + + # 8 g.Q.8X1X`./.:XnXcXR.E.E.E.E.E.E.",
"Y.Y.Y.Y.R.U.m.{ #.a ' s p l.A c c x v t.+.O.) ! , < < < : $ $ > : : % O @ @ # 4 8 [ G.-XT.Z.U.cXE.E.E.E.E.E.",
"Y.Y.Y.Y.R.P.4.O.#.' s v l.z.S I V t m y.` $.) ! W < & o $ % % $ $ $ $ : < ; , 7 3 8 +.U.;X;XE.R.E.E.E.E.E.E.",
"U.U.U.U.R.R.B.&.] ' 0 m wXI h F Y l N l.9 ( ) Q W < ; % % % % % * $ $ $ > $ ; , / %.Y.$XY.F.U.nXE.E.E.E.E.E.",
"F.U.P.P.P.R.S.g.] a p b.wXk r e P k g x.t.8 8 7 1 ; % % % & = + + & W / / W 3 + @ + 3 ( I.vXvXP.R.R.R.R.R.R.",
"D.D.R.I.R.T.[ ' a i 5 n.hXk w r H h j x.v.y.v 8 4 @ $ $ $ - # q u.A.!.~.`.`.v.a.3 & + & , / e.bXR.Y.P.E.cXY.",
"D.D.I.I.R.M.s s a i 9 n z.I h T P k N A n.b.n.l.s 8 1 ^ _ S.q y.&Xb.x.z.z.b.x.v.Y.X.! - O O : W I.E.R.P.P.%X",
"A.F.B.S.P.d.s s 9 s 5 0 .XZ Y L k j M x p.b.z.x.l.v [ +.a [ m n.n.D z..Xb.n.n.v.G.R.J.$.2 2 < & = @.cXE.P.P.",
"Z.U.B.P.D.k.v.m x b b z.B S j j N l.c.y.v.XXB N B b v 9 v x B |.z.D D S B m y.a.k.F.E.E.J.H.q.7.( 4.P.Y.Y.P.",
"K.K.0.P.N.G.gXS j t I z.p.b m p p f.W.M.G.Q.0 6 u M 6 c A t N z.z.z.S M u 0 s ' [ +.M.U.L.L.R.R.vXE.P.B.R.R.",
"lXH.0.P.=.k.gXI y w y .Xy.t.f.a ] *.P.C.Z.G.s 6 X . Y L V j j .XI I S N t u s ' ' =.V.J.L.W.U.N.6.P.Y.P.P.P.",
"w.w.0.S.m.j.b.I h e U S y.g.#.3.4.5.N.N.N.D.d.p g eXjXf H F l k E J F F h g p d [ ] %.I.K.M.h.G.N.P.P.B.P.P.",
"0.S.0.B.J.M.c.{.k L Z N f.J.H.H.H.5.N.D.6.N.C.s m eXJ f e T P T R f h P H h 6 s ' @.w.w.H.Z.F.N.D.P.B.P.P.S.",
"N.N.C.V.H.H.M.s.S Z N C h.V.L.J.H.V.C.C.H.H.K.V.l.wXL r w G P T H h y y P h x s { 8.w.w.B.N.D.D.D.S.S.S.P.P.",
"h.h.N.C.H.H.C.j.l.C s.f.N.V.Z.A.V.V.M.C.V.H.H.H.Q.OXI y y P Y @XP e y K P t 6 a { >.w.w.B.N.D.B.B.B.S.S.S.S.",
"N.N.N.B.0.B.m.h.f.f.d.N.0.B.M.h.h.h.M.N.N.0.0.0.A.v..XV L U k k R G F U k g x i a [ 4.V.J.J.H.0.B.B.B.B.B.B.",
"4.4.0.0.0.6.g.g.d.g.4.0.0.0.m.g.g.g.g.m.6.5.5.5.4.j.n.A Z Z t . z z L Z g c n s i d u.M.K.K.H.0.0.B.B.B.B.B.",
"8.9.9.9.4.*.d.d.g.m.8.9.9.7.6.6.4.4.4.3.5.5.5.5.0.C.f.t.n x p 9 6 g N N m y.j.f.s d u.M.K.K.0.0.0.B.B.B.B.B.",
"4.8.9.9.5.*.d.d.*.4.9.9.7.3.5.6.7.7.7.7.5.5.5.5.0.B.M.d.a.s a i 9 p c x y.i.c.j.a.=.g.M.H.8.0.6.6.B.B.B.B.B.",
"d.g.9.e.9.3.*.*.3.7.1.7.4.4.4.4.9.9.3.4.*.*.4.4.*.g.Z.C.V.#.a i a t.b u u l.A n g.6.m.m.6.6.6.6.6.6.B.B.B.B.",
"d.g.7.9.9.7.4.4.7.1.1.7.4.*.*.3.7.7.4.*.*.*.4.4.N.#.C.#.4.4.] ] [ u.y.b x x.N x g.8.8.8.5.=.6.6.6.6.N.0.B.0.",
"*.4.3.3.3.3.4.4.3.3.3.3.3.3.3.3.3.3.3.3.4.4.3.4.@.&.4.4.4.4.6.N.g.j.y.B x.z.c n d.4.7.e.9.5.4.m.4.6.6.6.0.0.",
"4.4.4.4.4.3.3.3.3.3.3.3.3.3.3.3.3.3.3.3.3.3.4.4.&.3.4.4.4.4.6.N.N.G.c.l.S A c y.d.4.9.e.9.7.4.g.4.4.4.6.6.0.",
"3.3.3.3.3.3.3.3.3.3.3.3.3.3.3.3.3.3.3.3.3.3.3.3.3.3.4.4.3.4.4.6.*.V.j.s.s.m n f.g.4.9.9.7.3.4.*.4.4.4.4.4.6.",
"3.3.3.3.3.3.&.&.&.&.&.3.&.&.&.&.&.&.&.&.&.&.&.&.&.&.3.&.&.&.3.4.&.*.+.t.t.t.t.d.*.3.3.7.3.3.4.4.3.4.4.4.3.4.",
"3.3.3.3.3.3.3.3.3.3.3.3.@.@.@.@.@.&.@.@.&.&.&.&.&.&.&.&.&.&.&.3.7.3.@.@.g.g.+.+.@.&.3.3.3.3.&.&.3.3.3.3.3.4.",
"3.3.3.3.3.3.@.@.%.%.@.@.@.@.@.@.@.@.@.@.@.@.@.@.@.&.&.&.&.&.&.3.<.1.7.3.3.&.3.&.@.&.&.&.&.&.&.3.3.3.3.3.3.3.",
"3.%.o.o.o.o.o.o.o.o.o.o.o.o.o.o.o.o.o.o.o.o.o.o.o.o.o.o.%.%.&.o.;.;.1.1.<.<.3.3.@.@.@.@.&.3.3.3.<.<.3.3.3.3.",
"@.%.o.o.o.o.o.o.o.o.o.o.o.o.o.o.o.o.o.o.o.o.o.o.o.o.o.o.o.o.o.o.3.;.<.2.2.2.1.X.@.@.@.@.&.3.1.1.;.o.o.3.3.3.",
"o.o.o.o.o.o.o.o.o.o.o.o.o.o.o.o.o.o.o.o.o.o.o.o.o.o.o.o.o.o.o.o.o.o.;.<.,.,.<.;.@.@.@.@.3.<.2.2.;.o.o.o.<.<.",
"o.o.o.o.o.o.o.o.o.o.o.o.o.o.o.o.o.o.o.o.o.o.o.o.o.o.o.o.o.o.o.o.#.#.o.;.;.;.;.;.@.@.@.@.o.<.2.2.;.o.o.o.o.<.",
"o.o.o.o.o.o.o.o.X.X.o.o.X.X.X.X.X.X.X.X.X.X.X.X.X.X.X.X.X.X.X. . .#. .X.o.;.;.o.o.@.@.@.;.<.,.,.;.o.o.o.o.;.",
"o.o.o.o.o.o.o.o.X.X.X.X.X.X.X.X.| | | X.X.X.X.X.X.X.X.X.X.X.X. . . . . .X.o.o.o.o.o.o.o.;.;.,.;.;.o.o.o.o.o.",
"X.X.X.X.X.X.X.X.X.X.X.X.X.X.X.X.X.X.X.X.| X.X.X.X.X.X.| X.X.X.X. . . .X. .X.o.o.o.o.;.;.;.;.;.;.o.o.o.o.o.o.",
"X.X.X.X.X.X.X.X.X.X.X.X.X.X.X.X.X.X.X.X.X.X.X.| X.X.X.X.X.X.X.X.X.X.X.X.X.X.o.o.X.;.-.;.;.o.o.o.o.o.o.X.X.o.",
"................................| | | | | | | | | | | | | X.X.X.X.X.X.X.X.X.X.X.X.-.-.-.;.X. . .X.X.X.X.X.X.",
"................} } } ..} } } } } } } } } } } } | | | | | | | X.r.r.X.X.|  .X.X.X.-.-.-.X.X. . .X.X.X.X.X.X."
};
