/* XPM */
static char *d5be1193479b4a808666e85493da5652chr0aDcIXUzJXe8v[] = {
/* columns rows colors chars-per-pixel */
"64 64 244 2 ",
"   c #020301",
".  c #0C0100",
"X  c #040A00",
"o  c #01040B",
"O  c #080805",
"+  c #130200",
"@  c #1B0100",
"#  c #190900",
"$  c #140705",
"%  c #041501",
"&  c #0A1501",
"*  c #0C1B03",
"=  c #091B08",
"-  c #131401",
";  c #1A1200",
":  c #151C09",
">  c #240100",
",  c #2C0500",
"<  c #2B1401",
"1  c #281806",
"2  c #371802",
"3  c #241E15",
"4  c #300C00",
"5  c #10230B",
"6  c #2B2517",
"7  c #342910",
"8  c #382C22",
"9  c #363730",
"0  c #4A1400",
"q  c #4C1600",
"w  c #492C05",
"e  c #4E320F",
"r  c #662E02",
"t  c #713C07",
"y  c #6B3C0C",
"u  c #463836",
"i  c #354006",
"p  c #554719",
"a  c #4D450A",
"s  c #784A00",
"d  c #684C19",
"f  c #6F4C10",
"g  c #7A7013",
"h  c #45432B",
"j  c #564526",
"k  c #5F5226",
"l  c #5D4A36",
"z  c #464C3E",
"x  c #664F29",
"c  c #6D5538",
"v  c #65552C",
"b  c #6E6524",
"n  c #4F5049",
"m  c #75634A",
"M  c #7A6655",
"N  c #7B6A63",
"B  c #6E5B59",
"V  c #824900",
"C  c #865200",
"Z  c #8E570E",
"A  c #A45300",
"S  c #AD5D11",
"D  c #82770F",
"F  c #877616",
"G  c #967C1C",
"H  c #8B6816",
"J  c #B66501",
"K  c #A77D07",
"L  c #B86914",
"P  c #B8780A",
"I  c #8C5922",
"U  c #95732A",
"Y  c #B87429",
"T  c #B1732F",
"R  c #CA6B07",
"E  c #D36D0C",
"W  c #D56D04",
"Q  c #CB730B",
"!  c #DC7305",
"~  c #D4730D",
"^  c #DB740D",
"/  c #D57708",
"(  c #C76A17",
")  c #D66D17",
"_  c #CE7B1B",
"`  c #C87417",
"'  c #D17313",
"]  c #D5751B",
"[  c #D77A19",
"{  c #E2780B",
"}  c #E1751A",
"|  c #C57527",
" . c #D2792C",
".. c #CB7D39",
"X. c #937455",
"o. c #B67949",
"O. c #847B61",
"+. c #9C7B67",
"@. c #B57E65",
"#. c #C37F40",
"$. c #7A843D",
"%. c #9D841F",
"&. c #A78608",
"*. c #B88408",
"=. c #AB8B1A",
"-. c #A68419",
";. c #B88A17",
":. c #AB9312",
">. c #A49107",
",. c #938628",
"<. c #928C3B",
"1. c #BE9729",
"2. c #B79738",
"3. c #D39716",
"4. c #C89114",
"5. c #E49718",
"6. c #D9A31C",
"7. c #C9962C",
"8. c #DA9B2A",
"9. c #D79637",
"0. c #CF8D31",
"q. c #E39C30",
"w. c #D8A638",
"e. c #C4A030",
"r. c #E9A632",
"t. c #98884F",
"y. c #B3904E",
"u. c #898167",
"i. c #9C8673",
"p. c #9B9362",
"a. c #AA8669",
"s. c #A8976D",
"d. c #A88C75",
"f. c #B79475",
"g. c #BEBA7A",
"h. c #CA884C",
"j. c #D49849",
"k. c #C89250",
"l. c #D7AC44",
"z. c #DAAE52",
"x. c #C9AA4C",
"c. c #EDA358",
"v. c #ECB34E",
"b. c #C69C67",
"n. c #D99A64",
"m. c #D0B472",
"M. c #FDB97A",
"N. c #ECB271",
"B. c #E38E4E",
"V. c #F6C36D",
"C. c #9C8B84",
"Z. c #AF9C87",
"A. c #B9A993",
"S. c #B8A5A7",
"D. c #CF9888",
"F. c #C7A788",
"G. c #D7A898",
"H. c #D7B698",
"J. c #D0B388",
"K. c #E1AA92",
"L. c #EDBC91",
"P. c #F1BD86",
"I. c #D79CA2",
"U. c #D8BAA6",
"Y. c #C9AEA7",
"T. c #E0BFA0",
"R. c #E4B3A2",
"E. c #F3BDB2",
"W. c #DEC29A",
"Q. c #F7CA99",
"!. c #FFD59C",
"~. c #F6CF92",
"^. c #DCC3AB",
"/. c #CDC4AC",
"(. c #E5C4A5",
"). c #ECCBAC",
"_. c #E7C8A8",
"`. c #F1CCAC",
"'. c #F6CBA5",
"]. c #EDD2AD",
"[. c #ECD6A6",
"{. c #FDD2A3",
"}. c #FFDBA4",
"|. c #F3D4AC",
" X c #FDD5AD",
".X c #F4D8AB",
"XX c #FCDAAD",
"oX c #F4D0A4",
"OX c #ECCEB3",
"+X c #E6CDB6",
"@X c #F2CFB2",
"#X c #F4CEBA",
"$X c #F9CDB9",
"%X c #EAD4B4",
"&X c #EDDBB4",
"*X c #EDD4BC",
"=X c #EDDBBB",
"-X c #E5D5B7",
";X c #F5D4B4",
":X c #FAD6B5",
">X c #F5D9B4",
",X c #FBDAB4",
"<X c #F5D6BA",
"1X c #F8D7B8",
"2X c #F4D9BA",
"3X c #FBDABB",
"4X c #FCE2A9",
"5X c #FEE1B3",
"6X c #FFE3BB",
"7X c #F5E4B7",
"8X c #EFE0B7",
"9X c #F6BFC5",
"0X c #F6CEC3",
"qX c #EEDAC5",
"wX c #ECD4C4",
"eX c #F5D5C2",
"rX c #FBD4C2",
"tX c #F4DBC3",
"yX c #FCDBC2",
"uX c #F4DDCB",
"iX c #FDDCCA",
"pX c #F8D5C8",
"aX c #FADBD3",
"sX c #EDCDC0",
"dX c #FDE2C3",
"fX c #F2E4CB",
"gX c #FEE4CA",
"hX c #FEEBCE",
"jX c #F8E7C5",
"kX c #FFF6C7",
"lX c #FEECD3",
"zX c #FFEADA",
"xX c #F9E5D6",
"cX c #FFFAD3",
"vX c #FFF4DC",
"bX c #FEF6D5",
"nX c #EEE0C6",
"mX c #FFF5E4",
"MX c #FFF3EB",
"NX c #FFF9EB",
"BX c #FFFBE4",
"VX c #FFF5F6",
"CX c #FDFAF7",
"ZX c #F7ECE5",
/* pixels */
"1X1X1X1X1X1X1X1X1X1X1X1X1X1X1X1X1X1X:X>X>X>X>X>X1X<XrXrX<X2X>X>X>X1X1X1X1X1X1X1X1X1X1X1X1X1X1X1X1X1X1X1X1X1X1X1X1X1X1X1X1X1X1X1X",
"1X1X1X1X1X1X1X1X1X1X1X1X1X1X1X1X1X1X:X:X>X>X>X>X1X<XrX<X<X<X>X>X>X1X1X1X1X1X1X1X1X1X1X1X1X1X1X1X1X1X1X1X1X1X1X1X1X1X1X1X1X1X1X1X",
"1X1X1X1X1X1X1X1X1X1X1X1X1X1X1X1X1X1X:X:X>X>X>X>X1X1X1X1X1X<X>X>X>X1X1X1X1X1X1X1X1X1X1X1X1X1X1X1X1X1X1X1X1X1X1X1X1X1X1X1X1X1X1X1X",
"1X1X1X1X1X1X1X1X1X1X1X1X1X1X1X1X1X:X1X1X<X<X<X1X1X1X1X1X1X1X>X>X1X1X1X1X1X1X1X1X1X1X1X1X1X1X1X1X1X1X1X1X1X1X1X1X1X1X1X1X1X1X1X1X",
"1X1X1X1X1X1X1X1X1X1X1X1X1X1X1X1X:X:X1X1X1X1X1X1X:X:X:X:X:X1X1X1X1X1X1X1X1X1X1X1X1X1X1X1X1X1X1X1X1X1X1X1X1X1X1X1X1X1X1X1X1X1X1X1X",
"1X1X1X1X1X1X1X1X1X1X1X1X1X1X1X:X:X:X1X1X<X<X<X1X:X:X:X:X:X1X1X1X1X1X1X1X1X1X1X1X1X1X1X1X1X1X1X1X1X1X1X1X1X1X1X1X1X1X1X1X1X1X1X1X",
"1X1X1X1X1X1X1X1X1X1X1X1X1X1X1X:X>X>X1X1X<XrX<X1X:X>XXX:X:X1X1X<X1X1X1X1X1X1X1X1X1X1X1X1X1X1X1X1X1X1X1X1X1X1X1X1X1X1X1X1X1X1X1X1X",
"1X1X1X1X1X1X1X1X1X1X1X1X1X1X1X:X>X>X1X1X<XrX<X1X>X>XXXXX:X1X3X3X1X1X1X1X1X1X1X1X1X1X1X1X1X1X1X1X1X1X1X1X1X1X1X1X1X1X1X1X1X1X1X1X",
"1X1X1X1X1X1X1X1X1X1X1X1X1X1X1X>X>X3X3X1X1X3X3X:X|.6X.X>X;X3X3XrX1X1X1X1X1X1X1X1X1X1X1X1X1X1X1X1X1X1X1X1X1X1X1X1X1X1X1X1X1X1X1X1X",
"1X1X1X1X1X1X1X1X1X1X1X1X1X1X1X<X3X;X;X3X3X1X@X`.3X).>X>X;XyX#X3X1X1X1X1X1X1X1X1X1X1X1X1X1X1X1X1X1X1X1X1X1X1X1X1X1X1X1X1X1X1X1X1X",
"1X1X1X1X1X1X1X1X1X1X1X1X1X1X1X<X;X3X3X:X X:X3X6X>X].dXyX<XyXyXrX1X1X1X1X1X1X1X1X1X1X1X1X1X1X1X1X1X1X1X1X1X1X1X1X1X1X1X1X1X1X1X1X",
"1X1X1X1X1X1X1X1X1X1X1X1X1X1X1X<X2X2X:X:X X X X`.>X=X+XtX*X;X<X1X1X1X1X1X1X1X1X1X1X1X1X1X1X1X1X1X1X1X1X1X1X1X1X1X1X1X1X1X1X1X1X1X",
"1X1X1X1X1X1X1X1X1X1X1X1X1X1X1X<XtX<X;XXXXX{.XX6X;XlXfXuX*XiX@X3X1X1X1X1X1X1X1X1X1X1X1X1X1X1X1X1X1X1X1X1X1X1X1X1X1X1X1X1X1X1X1X1X",
"1X1X1X1X1X1X1X1X1X1X1X1X1X1X1X<X*XyX,XoX{.4X4XoXH.Z.A.^.uXlX(.3X1X1X1X1X1X1X1X1X1X1X1X1X1X1X1X1X1X1X1X1X1X1X1X1X1X1X1X1X1X1X1X1X",
"1X1X1X1X1X1X1X1X1X1X1X1X1X1X1X<X*XyX;XoX}.4Xm.X.+ . + # m ^.hX(.:X1X1X1X1X1X1X1X1X1X1X1X1X1X1X1X1X1X1X1X1X1X1X1X1X1X1X1X1X1X1X1X",
"1X1X1X1X1X1X1X1X1X1X1X1X1X1X1X2XtX2X>XXX~.z.k.y.1 # . . . 1 _.3X2X2X<X:X1X1X1X<X>X>X>X>X:X:X1X1X1X1X1X1X1X1X1X<X1X<X1X1X1X1X1X:X",
"1X1X1X1X1X1X1X1X1X1X1X1X1X1X1X2X&X%XyXXXv.q.8.l.g 1 1 . -   7 tXnX=X>X>X3X1X:X;X>X>X>X>X;X:X:X1X1X1X<X<X<X<X<X<X<X2X<X<X<X>X>X>X",
"1X1X1X1X1X1X1X1X1X1X1X1X1X1X1X<X>XdXeX'.j.7.7.2.g.cXxXn     # c W.5X,X'.:XyX3XdX2X>X>X>X>X>X:X1X1X1X1X<X<X<X<X<X<X<X2X2X<X>X>X>X",
"1X1X1X1X1X1X1X1X1X1X1X1X1X1X1X1X3XE.9XE.w + e h n ZXCXCX9 o . e h.c.{.6X;X`.<X$X3X3X1X<X<X2X>X>X:X:X1X1X1X<X<X<X<X<X<X<X<X>X>X>X",
"1X1X1X1X1X1X1X1X1X1X1X1X1X1X1X1XE.D.I.I.< + 6   9 CXCXCXn   $ 2 | Q c.{.XX;XyXrXrX3X1X1X1X<X<X<X:X:X:X1X1X1X1X<X<X<X<X<X<X>X>X>X",
"1X1X1X1X1X1X1X1X1X1X1X1X1X1X1X1X3XR.G.D.w < w d k fXVXVXz   . 2 9.3.8.N.}.:X#XeX<X1X:X:X:X:X3X3X1X:X:X:X:X1X1X1X1X1X<X<X>X>X>X>X",
"1X1X1X1X1X1X1X1X1X1X1X1X1X1X1X1X1XdXgX'.y.x.e.2.m.BXVXS.  X . d z.w.8.j.N. XdX2X2X2X:X:X:X:X1X1X:X:X:X:X:X:X1X1X1X1X1X<X>X>X>X>X",
"1X1X1X1X1X1X1X1X1X1X1X1X1X1X1X:X>XoX@X}.l.6.6.w.t.C.B . . . + U T Z y f I b.Q.,X2X=X=X&X>X:X X X:X:X:X:X:X:X:X:X1X1X1X1X<X>X2X2X",
"1X1X1X1X1X1X1X1X1X1X1X1X1X1X1X:X|.6X;X4XV.4.3.w.e . $ . . . p x > > @ @ @ @ d H.>X2X2X2X2X>X:X X:X:X:X:X:X:X:X:X1X1X1X1X<X<X2X2X",
"1X1X1X1X1X1X1X1X1X1X1X1X1X1X1X1X;X,X,X[.4Xm.w.T @ + + + . j 8 + + + . .     + w b.Q.,X:X1X3XeXtX3X;X>X3X3X;X;X3X:X:X1X1X<X<X2X2X",
"1X1X1X1X1X1X1X1X1X1X1X1X1X1X1X1XiX).,X8X&XkX~.V , 0 2 e t.p + . . .   o o o . @ f h.N.!.XX:XiX+X%XdX3X@X3X3X3X3X:X:X1X1X1X<X<X2X",
"1X1X1X1X1X1X1X1X1X1X1X1X1X1X1X<X2X*XuXfX-XcXM.L  .| 0.z.t.. .     X o o o X   + 0 T ` 9.V.}.3XfX=XyX2X;X<X3X;X;X:X:X:X:X1X<X<X<X",
"1X1X1X1X1X1X1X1X1X1X1X1X1X1X1X<X*XuX*X*XZXvXh.] E R 5.w.f + . . X         X . @ > Z 0.Y T L.%XnX*X%X2XdXyX;X;X3X:X:X:X:X1X1X<X<X",
"1X1X1X1X1X1X1X1X1X1X1X1X1X<X1X<XeX<X:X1XVXMX..R { ! 5.P s U H G G D g g D F F H U f 2 4 2 1 h /.hXtX*X*X*XyXyX1X:X:X:X:X1X1X<X<X",
"1X1X1X1X1X1X1X1X1X1X1X1X1X>X<X1XrX;X5X>XMXzX..~ ! R r.P t e.=.-.=.=.:.>.>.:.=.-.y.e . - : X - - u.*XlX-XdXtX).3X1X:X:X:X1X1X1X<X",
"1X1X1X1X1X1X1X1X1X1X1X1X1X1X1X1XiX1XoX[.vXhX..] ' ' 3.*.V w.;.=.G %.=.&.K &.-.,.<.7 % % 5 % : - . j Y.vX+XOXgX;X1X1X:X:X1X1X1X1X",
"1X1X1X1X1X1X1X1X1X1X1X1X1X1X1X1X$X:X4X7XbXcX0.( ] _ 4.8.r 7.w.7.1.-.K ;.*.&.-.,.$.* * % = % * * : . ; O.fXlX+X2X<X1X1X:X:X:X1X1X",
"1X1X1X1X1X1X1X1X1X1X1X1X1X1X1X:XXX.X8X=XfXvXB.) ) ] R r.C s v.3.6.3.4.*.K K ,.<.a & * 5 % % 5 % * : * X h /.fX-X=X;XyXyX;X:X3X;X",
"1X1X1X1X1X1X1X1X1X1X1X1X1X1X1X:X|..X=XqXuXvXM.( ) ) ' _ 9.0 Z r.3.6.6.4.1.2.,.b - - & = = = & * % 5 % : X - u.lXtX<X@X;X:X:X:X3X",
"1X1X1X1X1X1X1X1X1X1X1X1X1X1X1X:X:X>XtXtX<XkX,XT ' W ^ W / 3.q s 9.l.l.l.x.y.p .     X                     . . 1 U.iXgX<XrXyX;X;X",
"1X1X1X1X1X1X1X1X1X1X1X1X1X1X1X1X3X<XpXtX].6XkXb.` R ^ ! W / 9.r q t C s w 4 @ + + ; + 6 : 6 3 6 3 8 6 9 8 8 8 1 > X.(.3XrX<X<X3X",
"1X1X1X1X1X1X1X1X1X1X1X1X1X1X1X1X3X$XpX2X>X7XcX}.Y _ [ R ! ^ _ 9.0.L J J J A A S I y 2 2 1 + . . 1 + u Y.vXfX2X%XU.U._.1XyXyXtX*X",
"1X1X1X1X1X1X1X1X1X1X1X1X1X1X1X1XrX0X3X;X>X].7XkXN.Y ( E ^ E R ` _ Q ~ ^ { { ^ ] ..o.r > @ l l + + + + . i.jX=X2XgX<X3X3X@X;XyXtX",
"1X1X1X1X1X1X1X1X1X1X1X1X1X1X1X<XuXuX X{.XXoX&XjXmXF.Y ] } E Q ' Q Q ~ ~ E E ~ ~ ` | T o.> d.Z.. + j t.< + M zX%X].>XyX<X>X,X,X.X",
"1X1X1X1X1X1X1X1X1X1X1X1X1X1X1X2XqXuX{.!.XXXX2X*XZXNXN.S  .` _ Q / / ~ ~ ' E ' _ L Y P.kX:Xe # + + c J.w . . m dX>X3X;X;X,X.X[.XX",
"1X1X1X1X1X1X1X1X1X1X1X1X1X1X1X<X2X2X:X:X>X:X1X3XsXzXvX'.y.Y L [ ~ ! W ! ! E | Y k.{.cXcXjX_.< j x + # . 1 s.k v dX].>X,X3X@X3X2X",
"1X1X1X1X1X1X1X1X1X1X1X1X1X1X1X:X>X>X2X2X>X>X1X3XyX<XiXvXjX!.j.L ( ( ( ( L | n.L.bXvXbXhX%XdXOXc # . + 6 ; p.v + X.gX>X`.1XiX<X;X",
"1X1X1X1X1X1X1X1X1X1X1X1X1X1X1X1X>X2X2X2X:X:XeXeX3X'.`.3X,XjXkXkX{.Q.L.Q.3XlXNXNXmXvXqX+XhXOXyX*Xl . ; O.1 . . . @ +.iXeX#XrX;X3X",
"1X1X1X1X1X1X1X1X1X1X1X1X1X1X1X:X:X<X2X2X1X1X2X<X:X,X6X3X;X3X(.H.dXhXBXmXNXMXzXaXuX+XgXtX;X<X<XgXqXm . . . + N Z.i.d.aXaXrXrX1X1X",
"1X1X1X1X1X1X1X1X1X1X1X1X1X1X1X:X:X:XtXeXpXrX>XXX{.{.].%X<XiXG.+.a.F.yXrXrX$X:X,X:XdX<XeXpXiX1X#XiXxXM + + . A.lXlXzX0XpX<XyXeXrX",
"1X1X1X1X1X1X1X1X1X1X1X1X1X1X1X:X:X:X<XeXpXrX:XXXXXXX>X2XtXiXG.a.d.F.iX3XrX3X:X X X|.<XrXyXOX3X3X<XeXxXM . + Z.gX_.yXrX#X1X3X#XiX",
"1X1X1X1X1X1X1X1X1X1X1X1X1X1X1X<X2X<X1X1X3X1X:X:X7X&X&X&X2XyXK.@.a.F.dX;X1X1X1X1X3X;XdX).:X3X1X@XyX2XtXtXc # _.dXgX).dX;X3X>X>X.X",
"1X1X1X1X1X1X1X1X1X1X1X1X1X1X1X2X2X2X1X:X1X1X1X1X%X=X2X2X>X3XK.@.a.F.dX|.:X3XyX<X3X>X|.>X>X;X<XyX;X>X2XyX].s.2X<X;X3X_.6X;X).5X.X",
"1X1X1X1X1X1X1X1X1X1X1X1X1X1X1X<X2X<X1X1X1X1X1X1X3X2X3X>X3X3XH.a.a.F.dX|.3X>X1X3X1X2X:X;X>X>X>X1X1X1X1X<X<X<X<X<X<X1X:X:X:X:X:X>X",
"1X1X1X1X1X1X1X1X1X1X1X1X1X1X1X1X1X1X1X1X1X1X1X1X>X).)._.).).F.X.+.f.@X(.)._._.).;X;X>X1X3X3X3X1X1X1X1X1X1X1X1X1X1X1X1X1X1X1X1X1X",
"1X1X1X1X1X1X1X1X1X1X1X1X1X1X1X1X1X1X1X1X1X1X1X1X@X(.(.(._._.F.a.a.f.).L._.(.(._._._.@X>X1X3X1X>X1X1X1X1X1X1X1X1X1X1X1X1X1X1X1X1X",
"1X1X1X1X1X1X1X1X1X1X1X1X1X1X1X1X1X1X1X1X1X1X1X1X;X(.(.T.(._.T.H.H.H.).T._._._._.T.(.).;X1X1X1X>X1X1X1X1X1X1X1X1X1X1X1X1X1X1X1X1X",
"1X1X1X1X1X1X1X1X1X1X1X1X1X1X1X1X1X1X1X1X1X1X1X1X3X_.)._.(._._._._._._.(._._._._._.).;X>X3X3X3X3X1X1X1X1X1X1X1X1X1X1X1X1X1X1X1X1X",
"1X1X1X1X1X1X1X1X1X1X1X1X1X1X1X1X1X1X1X1X1X1X1X1X3X;X3X>X).@X).;X;X@X).).;X>X;X@X3X3X1X3X3X3X1X1X1X1X1X1X1X1X1X1X1X1X1X1X1X1X1X1X",
"1X1X1X1X1X1X1X1X1X1X1X1X1X1X1X1X1X1X1X1X1X1X1X1X3X>X3X3X>X3X3X3X1X3X>X3X3X3X3X3X3X3X1X3X1X>X>X>X1X1X1X1X1X1X1X1X1X1X1X1X1X1X1X1X",
"1X1X1X1X1X1X1X1X1X1X1X1X1X1X1X1X1X1X1X1X1X1X1X1X3X;X3X>X;X3X3X1X>X3X>X3X>X;X>X:X>X>X1X3X3X3X3X3X1X1X1X1X1X1X1X1X1X1X1X1X1X1X1X1X",
"1X1X1X1X1X1X1X1X1X1X1X1X1X1X1X1X1X1X1X1X1X1X1X1X1X1X1X1X1X1X1X1X1X1X1X1X1X1X1X1X1X1X1X1X1X1X1X1X1X1X1X1X1X1X1X1X1X1X1X1X1X1X1X1X",
"1X1X1X1X1X1X1X1X1X1X1X1X1X1X1X1X1X1X1X1X1X1X1X1X1X1X1X1X1X1X1X1X1X1X1X1X1X1X1X1X1X1X1X1X1X1X1X1X1X1X1X1X1X1X1X1X1X1X1X1X1X1X1X1X",
"1X1X1X1X1X1X1X1X1X1X1X1X1X1X1X1X1X1X1X1X1X1X1X1X1X1X1X1X1X1X1X1X1X1X1X1X1X1X1X1X1X1X1X1X1X1X1X1X1X1X1X1X1X1X1X1X1X1X1X1X1X1X1X1X",
"1X1X1X1X1X1X1X1X1X1X1X1X1X1X1X1X1X1X1X1X1X1X1X1X1X1X1X1X1X1X1X1X1X1X1X1X1X1X1X1X1X1X1X1X1X1X1X1X1X1X1X1X1X1X1X1X1X1X1X1X1X1X1X1X",
"1X1X1X1X1X1X1X1X1X1X1X1X1X1X1X1X1X1X1X1X1X1X1X1X1X1X1X1X1X1X1X1X1X1X1X1X1X1X1X1X1X1X1X1X1X1X1X1X1X1X1X1X1X1X1X1X1X1X1X1X1X1X1X1X",
"1X1X1X1X1X1X1X1X1X1X1X1X1X1X1X1X1X1X1X1X1X1X1X1X1X1X1X1X1X1X1X1X1X1X1X1X1X1X1X1X1X1X1X1X1X1X1X1X1X1X1X1X1X1X1X1X1X1X1X1X1X1X1X1X",
"1X1X1X1X1X1X1X1X1X1X1X1X1X1X1X1X1X1X1X1X1X1X1X1X1X1X1X1X1X1X1X1X1X1X1X1X1X1X1X1X1X1X1X1X1X1X1X1X1X1X1X1X1X1X1X1X1X1X1X1X1X1X1X1X",
"1X1X1X1X1X1X1X1X1X1X1X1X1X1X1X1X1X1X1X1X1X1X1X1X1X1X1X1X1X1X1X1X1X1X1X1X1X1X1X1X1X1X1X1X1X1X1X1X1X1X1X1X1X1X1X1X1X1X1X1X1X1X1X1X"
};
