/* XPM */
static char *_8248827860649e3dd25a9d51ef97edaEyNVqKvU5LspNoaS[] = {
/* columns rows colors chars-per-pixel */
"64 64 223 2 ",
"   c #310000",
".  c #572719",
"X  c #602A1C",
"o  c #69301F",
"O  c #5D3527",
"+  c #6F3424",
"@  c #6B3729",
"#  c #6D3B2C",
"$  c #65392C",
"%  c #753B2C",
"&  c #7C3A2B",
"*  c #793727",
"=  c #683D31",
"-  c #753B30",
";  c #7B3E32",
":  c #6F4A3E",
">  c #794B3C",
",  c #774738",
"<  c #7C4624",
"1  c #7C5748",
"2  c #8E3C1A",
"3  c #943C19",
"4  c #873C26",
"5  c #813D30",
"6  c #A3451D",
"7  c #A64C1D",
"8  c #AA471C",
"9  c #A3501C",
"0  c #8A4025",
"q  c #85472E",
"w  c #9B4926",
"e  c #97482A",
"r  c #9C542D",
"t  c #844433",
"y  c #84443A",
"u  c #834C3E",
"i  c #8C4A3B",
"p  c #8D4835",
"a  c #944A34",
"s  c #9C4E32",
"d  c #904B3C",
"f  c #81503F",
"g  c #9B5334",
"h  c #96543A",
"j  c #9C5439",
"k  c #A54C26",
"l  c #B34D25",
"z  c #AE552C",
"x  c #AA5729",
"c  c #B7542F",
"v  c #BC552E",
"b  c #B55B2A",
"n  c #B25323",
"m  c #A34F35",
"M  c #AB5432",
"N  c #AD5C33",
"B  c #A95C3D",
"V  c #A25738",
"C  c #B55B33",
"Z  c #B85A37",
"A  c #A6603C",
"S  c #C05D36",
"D  c #844F41",
"F  c #8C4E44",
"G  c #8C5648",
"H  c #8F5A4D",
"J  c #875647",
"K  c #955943",
"L  c #93554A",
"P  c #945847",
"I  c #885E50",
"U  c #9A5B52",
"Y  c #8C675B",
"T  c #896557",
"R  c #93655A",
"E  c #996557",
"W  c #8E6549",
"Q  c #A76448",
"!  c #B8664B",
"~  c #A36B5B",
"^  c #AB6D5E",
"/  c #A86B51",
"(  c #A9715D",
")  c #B57B5D",
"_  c #B3725E",
"`  c #937161",
"'  c #997668",
"]  c #996766",
"[  c #A96A61",
"{  c #AC7162",
"}  c #AA7B6D",
"|  c #A77868",
" . c #B17564",
".. c #B77B68",
"X. c #A67E72",
"o. c #AC7D71",
"O. c #B97F72",
"+. c #828678",
"@. c #BD826A",
"#. c #A28075",
"$. c #AB8173",
"%. c #AC867A",
"&. c #A98A7B",
"*. c #B28476",
"=. c #BC8475",
"-. c #B6897B",
";. c #BC8A7B",
":. c #C48F7C",
">. c #C38877",
",. c #C4927C",
"<. c #CD937A",
"1. c #CE997A",
"2. c #9C8782",
"3. c #B28F86",
"4. c #BF8E80",
"5. c #AF998C",
"6. c #BC9285",
"7. c #BC9C8E",
"8. c #B69687",
"9. c #A38E97",
"0. c #B69C93",
"q. c #BC9D93",
"w. c #BB9E99",
"e. c #BAA08E",
"r. c #AFA29A",
"t. c #B5A496",
"y. c #BDA395",
"u. c #BEA896",
"i. c #B7A29A",
"p. c #BDA59A",
"a. c #BEA99A",
"s. c #B7AC9A",
"d. c #BCA6A2",
"f. c #BEAAA1",
"g. c #B8AAA7",
"h. c #B8B8BA",
"j. c #B4AAB2",
"k. c #C59384",
"l. c #CC9284",
"z. c #C49B8D",
"x. c #CA9C8D",
"c. c #C89884",
"v. c #D39A88",
"b. c #C29E93",
"n. c #CA9E92",
"m. c #C4A28C",
"M. c #CBA28E",
"N. c #D2A48E",
"B. c #C3A496",
"V. c #CBA395",
"C. c #C1AA96",
"Z. c #CDA996",
"A. c #C2A69A",
"S. c #CAA59A",
"D. c #C4A99C",
"F. c #CBAA9D",
"G. c #D3A494",
"H. c #D2A699",
"J. c #D2AA9C",
"K. c #DBAC9C",
"L. c #D8A894",
"P. c #C4B19F",
"I. c #D1B99F",
"U. c #C3A7A1",
"Y. c #C6AAA1",
"T. c #C3ACA2",
"R. c #CAACA2",
"E. c #CBAFA9",
"W. c #C8A9A6",
"Q. c #D1AEA3",
"!. c #DCADA1",
"~. c #D6AEAE",
"^. c #C1B3A6",
"/. c #C4B3AC",
"(. c #CEB2AD",
"). c #CAB5A8",
"_. c #D5B2A4",
"`. c #D3B4AD",
"'. c #D8B2A5",
"]. c #CDB7B3",
"[. c #CDB8B4",
"{. c #C4B8B8",
"}. c #D2BBB5",
"|. c #D6BDB9",
" X c #E5BDB1",
".X c #D6C2BA",
"XX c #EDC0A9",
"oX c #F9CBBE",
"OX c #D7BFCC",
"+X c #CDC5C2",
"@X c #DACFC4",
"#X c #D9C6C8",
"$X c #DBD4CB",
"%X c #DCDDD5",
"&X c #E3CCC8",
"*X c #E7D3CD",
"=X c #EED4C7",
"-X c #FAD1C6",
";X c #EBD9D4",
":X c #FADCD6",
">X c #E6CCD5",
",X c #E7E5DD",
"<X c #F3E0DB",
"1X c #FEE5DE",
"2X c #FDE9DD",
"3X c #FFE8D4",
"4X c #E9E7E5",
"5X c #FDE5E3",
"6X c #F4E9E3",
"7X c #FCE4EC",
"8X c #F4EDEC",
"9X c #FEECEA",
"0X c #FDF3EC",
"qX c #FFFDEC",
"wX c #FBFDEA",
"eX c #FFEDF1",
"rX c #F1E7F0",
"tX c #F5F4F3",
"yX c #FDF4F4",
"uX c #FEFAF4",
"iX c #FDF5FA",
"pX c #FEFBFB",
"aX c #F6F8F5",
/* pixels */
"A.A.A.A.A.A.A.A.A.A.A.A.A.A.A.A.A.A.A.A.A.A.A.A.A.A.A.A.A.A.A.A.A.A.A.A.A.A.A.A.A.A.A.A.A.A.A.A.A.A.A.A.A.A.A.A.A.A.A.A.A.A.A.A.",
"A.A.A.A.A.A.A.A.A.A.A.A.A.A.A.A.A.A.A.A.A.A.A.A.A.A.A.A.A.A.A.A.A.A.A.A.A.A.A.A.A.A.A.A.A.A.A.A.A.A.A.A.A.A.A.A.A.A.A.A.A.A.A.A.",
"A.A.A.A.A.A.A.A.A.A.A.A.A.A.A.A.A.A.A.A.A.A.A.A.A.A.A.A.A.A.A.A.A.A.A.A.A.A.A.A.A.A.A.A.A.A.A.A.A.A.A.A.A.A.A.A.A.A.A.A.A.A.A.A.",
"A.A.A.A.A.A.A.A.A.A.A.A.A.A.A.A.A.A.A.A.A.A.A.A.A.A.A.A.A.A.A.A.A.A.A.A.A.A.A.A.A.A.A.A.A.A.A.A.A.A.A.A.A.A.A.A.A.A.A.A.A.A.A.A.",
"A.A.A.A.A.A.A.A.A.A.A.A.A.A.A.A.A.A.A.A.A.A.A.A.A.A.A.A.A.A.A.A.A.A.A.A.A.A.A.A.A.A.A.A.A.A.A.A.A.A.A.A.A.A.A.A.A.A.A.A.A.A.A.A.",
"A.A.A.A.A.A.A.A.A.A.A.A.A.A.A.A.A.A.A.A.A.A.A.A.A.A.A.A.A.A.A.A.A.A.A.A.A.A.A.A.A.A.A.A.A.A.A.A.A.A.A.A.A.A.A.A.A.A.A.A.A.A.A.A.",
"A.A.A.A.A.A.A.A.A.A.A.A.A.A.A.A.A.A.A.A.A.A.A.A.A.A.A.A.A.A.A.A.A.A.A.A.A.A.A.A.A.A.A.A.A.A.A.A.A.A.A.A.A.A.A.A.A.A.A.A.A.A.A.A.",
"A.A.A.A.A.A.A.A.A.A.A.A.A.A.A.A.A.A.A.A.A.A.A.A.A.A.A.A.A.A.A.A.A.A.A.A.A.A.A.A.A.A.A.A.A.A.A.A.A.A.A.A.A.A.A.A.A.A.A.A.A.A.A.A.",
"A.A.A.A.A.A.A.A.A.A.A.A.A.A.A.A.A.A.A.A.A.A.A.A.A.A.A.A.A.A.A.A.A.A.A.A.A.A.A.A.A.A.A.A.A.A.A.A.A.A.A.A.A.A.A.A.A.A.A.A.A.A.A.A.",
"A.A.A.A.A.A.A.A.A.A.A.A.A.A.A.A.A.A.A.A.A.A.A.A.A.A.A.A.A.A.A.A.A.A.A.A.A.A.A.A.A.A.A.A.A.A.A.A.A.A.A.A.A.A.A.A.A.A.A.A.A.A.A.A.",
"A.A.A.A.A.A.A.A.A.A.A.A.A.A.A.A.A.A.A.A.A.A.A.A.A.A.A.A.A.A.A.A.A.A.A.A.A.A.A.A.A.A.A.A.A.A.A.A.A.A.A.A.A.A.A.A.A.A.A.A.A.A.A.A.",
"A.A.A.A.A.A.A.A.A.A.A.A.A.A.A.A.A.A.A.A.A.A.A.A.A.A.A.A.A.A.A.A.A.A.A.A.A.A.A.A.A.A.A.A.A.A.A.A.A.A.A.A.A.A.A.A.A.A.A.A.A.A.A.A.",
"A.A.A.A.A.A.A.A.A.A.A.A.A.A.A.A.A.A.A.A.A.A.A.A.A.A.A.A.A.A.A.A.A.A.A.A.A.A.A.A.A.A.A.A.A.A.A.A.A.A.A.A.A.A.A.A.A.A.A.A.A.A.A.A.",
"A.A.A.A.A.A.A.A.A.A.A.A.A.A.A.A.A.A.A.A.A.A.A.A.A.A.A.A.A.A.A.A.A.A.A.A.A.A.A.A.A.A.A.A.A.A.A.A.A.A.A.A.A.A.A.A.A.A.A.A.A.A.A.A.",
"A.A.A.A.A.A.A.A.A.A.A.A.A.A.A.A.A.A.A.A.A.A.A.A.A.A.A.A.A.A.A.A.A.A.A.A.A.A.A.A.A.A.A.A.A.A.A.A.A.A.A.A.A.A.A.A.A.A.A.A.A.A.A.A.",
"A.A.A.A.A.A.A.A.A.A.A.A.A.A.A.A.A.A.A.A.A.A.A.A.A.A.A.A.A.A.A.A.p.p.a.A.B.B.B.B.V.V.S.A.A.A.A.A.A.A.A.A.A.A.A.A.A.A.A.A.A.A.A.A.",
"A.A.A.A.A.A.A.A.A.p.B.A.S.7.R.A.A.Y.D.D.p.Y.7.F.S.B.B.B.D.D.A.p.i.^.s.y.Z.M.m.L.L.G.V.B.F.7.y.A.A.A.A.A.A.A.A.A.A.A.A.A.A.A.A.A.",
"A.A.A.A.A.A.A.A.y.A.D.D.R.S.F.b.q.A.y.p.D.D.p.A.B.B.S.F.S.y.y.D.a.T.y.m.N.<.) / / ..,.J.z.S.R.y.A.A.A.A.A.A.A.A.A.A.A.A.A.A.A.A.",
"A.A.A.A.A.A.A.A.D.D.A.y.b.S.b.S.Q.F.D.B.A.p.D.A.y.A.D.A.A.D.D.p.y.B.L.v.) j s B g h K ;.K._.q.D.A.A.A.A.A.A.A.A.A.A.A.A.A.A.A.A.",
"A.A.A.A.A.A.A.A.A.y.y.D.S.Q.q.F.z.6.J.B.B.y.p.a.D.D.A.p.A.Y.D.B.Z.N.<.! g N Z M B Q K L I Y A.R.A.A.A.A.A.A.A.A.A.A.A.A.A.A.A.A.",
"A.A.A.A.A.A.A.A.D.A.S.S.q.7.T : J J x.V.S.D.i.f.U.p.U.Y.A.q.B.F.L.@.Q M z Z v c r   K ~ 1 3.A.w.A.A.A.A.A.A.A.A.A.A.A.A.A.A.A.A.",
"A.A.A.A.A.A.A.A.y.A.D.A.F.`.#.= + + =.G.B.D.i.T.i.U.Y.A.V.J.H.c.) V M Z v l 8 Z A < , J.=XR.w.(.A.A.A.A.A.A.A.A.A.A.A.A.A.A.A.A.",
"A.A.A.A.A.A.A.A.D.A.A.y.B.R.q.I ; * { G.B.y.D.a.y.D.S.n.G.G.:./ r x C 6 l S M V q W I.wX}.0.Y.p.A.A.A.A.A.A.A.A.A.A.A.A.A.A.A.A.",
"A.A.A.A.A.A.A.A.A.q.D.R.A.q._.-.% * L K.S.y.R.y.R.q.z.K.v._ h e N 9 x b c k g 1.XX8.qXqX^.a.^.A.A.A.A.A.A.A.A.A.A.A.A.A.A.A.A.A.",
"A.A.A.A.A.A.A.A.A.A.A.A.S.S.S.V.E + D x.S.B.F.y.b.G.L.>.Q 0 2 w 7 b x k Z e ,.3X&.uX$X+.@Xi.A.B.A.A.A.A.A.A.A.A.A.A.A.A.A.A.A.A.",
"A.A.A.A.A.A.A.A.A.A.A.A.A.S.S.V.k.- , z.z.S.B.B.G.G.@.h 4 e w 3 7 n z M V _ | &X$X,Xh.4X@X5._.7.A.A.A.A.A.A.A.A.A.A.A.A.A.A.A.A.",
"S.S.A.A.A.A.A.A.A.A.A.A.A.A.S.S.H.} . $.'.V.7.G.G.^ p s s 3 2 6 6 6 C B K oX9XeXpXh.j.pXT.p.F.V.S.A.A.A.A.A.A.A.A.A.A.A.A.A.A.A.",
"S.S.A.A.A.A.A.A.A.A.A.A.A.A.S.S.n.z.: ' F.V.K.k.G t 4 a V s w w 3 ! m a K.0XyX9.4XpX#X7X}.A.n.V.S.A.A.A.A.A.A.A.A.A.A.A.A.A.A.A.",
"S.S.A.A.A.A.A.A.A.A.A.A.A.A.A.S.F.V.&.1 B.!.*.u % t p p a j a 0 e 4 d l.0X*X9X{.pXrXOX7X#Xp.n.V.S.A.A.A.A.A.A.A.A.A.A.A.A.A.A.A.",
"S.S.A.A.A.A.A.A.A.A.A.A.A.A.A.A.B.S.7.Y V.} > # , & 5 p p t t t y - n.2X2X/.uXtXyX{.>XiXW.p.y.D.A.A.A.A.A.A.A.A.A.A.A.A.A.A.A.A.",
"S.S.S.A.A.A.A.A.A.A.A.A.A.A.A.A.D.B.F.7.` O @ % - y F L U E E R ] ~.uXuX0XuXuX%Xg.eX7X&X(.i.a.s.a.A.A.A.A.A.A.A.A.A.A.A.A.A.A.A.",
"S.A.S.A.A.A.A.A.A.A.A.A.A.A.A.A.y.y.y.B.S.-X XoX-X:X:X5X5X1X5X9XiXuXyXuX4X,XwXuX0X;X[.2.W.T.t.s.a.A.A.A.A.A.A.A.A.A.A.A.A.A.A.A.",
"A.A.A.A.A.A.A.A.A.A.A.A.A.A.A.A.D.B.D.A.A.=XuXuXuXuXuXyXiXiXiXiXeXiXuXpX+X{.uX{.yX}.0X2X0.p.s.P.a.A.A.A.A.A.A.A.A.A.A.A.A.A.A.A.",
"A.A.A.A.A.A.A.A.A.A.A.A.A.A.A.A.A.B.D.A.y.}.6XuXuXaXpXpXaXiXiXiXpXeX8XpXtXtXpX#XyX;X<X.Xp.P.s.e.A.A.A.A.A.A.A.A.A.A.A.A.A.A.A.A.",
"A.A.A.A.A.A.A.A.A.A.A.A.A.A.A.A.y.y.D.D.y.f.&XyXyXtXaXpXpXiXiXiXpXyXpXpXpXpXuXuXuX*X}.`.y.0.Y.A.A.A.A.A.A.A.A.A.A.A.A.A.A.A.A.A.",
"A.A.A.A.A.A.A.A.A.A.A.A.A.A.A.A.y.B.A.D.A.i.].<XuXuXyXtXyXpXpXiXyXtXpXpXpXpX8XuXyXyX|.0.A.D.D.A.A.A.A.A.A.A.A.A.A.A.A.A.A.A.A.A.",
"A.A.A.A.A.A.A.A.A.A.A.A.A.A.A.A.C.D.B.A.D.w.p.[.9XpXpXtX8XyXiXtXpXaXaXaXtXaXpXuXuX].p.E.A.A.Y.A.A.A.A.A.A.A.A.A.A.A.A.A.A.A.A.A.",
"A.A.A.A.A.A.A.A.A.A.A.A.A.A.A.A.y.C.y.y.D.A.w.p..X<XpXpXuXuXuX0XyXuXaXpXaXaXpX6X/.d.w.0.D.E.A.A.A.A.A.A.A.A.A.A.A.A.A.A.A.A.A.A.",
"A.A.A.A.A.A.A.A.A.A.A.A.A.A.A.A.y.u.y.A.F.S.D.U.w.].;X9XyXuXuXyX0X0X0XuXpX0X$Xg./.w.W.`.Y.b.A.R.A.A.A.A.A.A.A.A.A.A.A.A.A.A.A.A.",
"A.A.A.A.A.A.A.A.A.A.A.A.A.A.A.A.y.C.D.S.A.A.S.Y.A.w.d..X;X6X0XuX0XuX0X;X@X/.t.f.i.E.p.q.Y.D.B.S.A.A.A.A.A.A.A.A.A.A.A.A.A.A.A.A.",
"A.A.A.A.A.A.A.A.A.A.A.A.A.A.A.A.u.u.A.A.S.S.S.D.A.U.p.p.p.f.).}.3.3.F.A.y.a.i.T.A.A.A.A.A.A.A.A.A.A.A.A.A.A.A.A.A.A.A.A.A.A.A.A.",
"A.A.A.A.A.A.A.A.A.A.A.A.A.A.A.A.a.u.A.S.S.S.S.S.A.A.p.p.p.y.y.' = $ X.V.S.R.A.A.A.A.A.A.A.B.B.B.A.A.A.A.A.A.A.A.A.A.A.A.A.A.A.A.",
"A.A.A.A.A.A.A.A.A.A.A.A.A.A.A.A.A.A.A.S.S.S.S.S.D.A.D.D.B.S.Q.$.@ + O.K.V.B.B.y.B.B.A.B.B.B.u.u.A.A.A.A.A.A.A.A.A.A.A.A.A.A.A.A.",
"A.A.A.A.A.A.A.A.A.A.A.A.A.A.A.A.A.A.A.A.S.S.S.A.D.y.D.D.B.V.6.} ^ ^ { ,.V.V.S.B.B.B.B.B.B.B.u.u.A.A.A.A.A.A.A.A.A.A.A.A.A.A.A.A.",
"A.A.A.A.A.A.A.A.A.A.A.A.A.A.A.A.A.A.A.A.A.A.A.A.D.A.y.B.V.V.> X  .^ o u x.Z.B.B.B.A.A.A.A.A.a.a.A.A.A.A.A.A.A.A.A.A.A.A.A.A.A.A.",
"A.A.A.A.A.A.A.A.A.A.A.A.A.A.A.A.A.A.A.A.A.A.A.A.y.D.B.V.H.G.F ; .. .% f M.Z.e.B.A.A.A.A.A.A.A.A.A.A.A.A.A.A.A.A.A.A.A.A.A.A.A.A.",
"A.A.A.A.A.A.A.A.A.A.A.A.A.A.A.A.A.A.A.A.A.A.A.p.y.D.S.S.x. .[ O.{  . .E | m.B.R.A.A.A.A.A.A.A.A.A.A.A.A.A.A.A.A.A.A.A.A.A.A.A.A.",
"A.A.A.A.A.A.A.A.A.A.A.A.A.A.A.A.A.A.A.A.A.A.A.p.D.y.V.J.*.. y ^ + + ~ # . &.B.B.A.A.A.A.A.A.A.A.A.A.A.A.A.A.A.A.A.A.A.A.A.A.A.A.",
"A.A.A.A.A.A.A.A.A.A.A.A.A.A.A.A.A.A.A.A.A.A.A.A.A.A.S.H.-.D D >.i u k.J 1 8._.q.A.A.A.A.A.A.A.A.A.A.A.A.A.A.A.A.A.A.A.A.A.A.A.A.",
"A.A.A.A.A.A.A.A.A.A.A.A.A.A.A.A.A.B.a.a.a.a.A.A.R.S.A.V.!.;.H ~ l.=.H } z.F.S.B.A.A.A.A.A.A.A.A.A.A.A.A.A.A.A.A.A.A.A.A.A.A.A.A.",
"A.A.A.A.A.A.A.A.A.A.A.A.A.A.A.A.A.B.A.A.p.p.A.A.p.B.F.n.H.-.@ . >.~ X # V.B.B.S.A.A.S.S.A.A.A.A.A.A.A.A.A.A.A.A.A.A.A.A.A.A.A.A.",
"A.A.A.A.A.A.A.A.A.A.A.A.A.A.A.A.A.A.A.A.p.p.A.A.D.q.b.V.V.k.E J v.=., } J.z.R.B.A.A.S.S.A.A.A.A.A.A.A.A.A.A.A.A.A.A.A.A.A.A.A.A.",
"A.A.A.A.A.A.A.A.A.A.A.A.A.A.A.A.A.A.A.A.p.p.A.A.A.S.Q.S.R > $.x.u H K.| $ ` y.A.A.A.S.S.A.A.A.A.A.A.A.A.A.A.A.A.A.A.A.A.A.A.A.A.",
"A.A.A.A.A.A.A.A.A.A.A.A.A.A.A.A.A.A.A.A.p.p.A.A.R.A.b.7.: . R *.@ . ;.R O : F.D.A.A.S.S.A.A.A.A.A.A.A.A.A.A.A.A.A.A.A.A.A.A.A.A.",
"A.A.A.A.A.A.A.A.A.A.A.A.A.A.A.A.A.A.A.A.A.A.A.A.q.S.R.Q.X.Y 6.G.H E !.z.T 8.q.y.A.A.S.S.A.A.A.A.A.A.A.A.A.A.A.A.A.A.A.A.A.A.A.A.",
"A.A.A.A.A.A.A.A.A.A.A.A.A.A.A.A.A.A.A.A.A.A.A.A.D.D.S.A.F.J.S.H.o.4.V.V.F.D.D.D.A.A.S.A.A.A.A.A.A.A.A.A.A.A.A.A.A.A.A.A.A.A.A.A.",
"A.A.A.A.A.A.A.A.A.A.A.A.A.A.A.A.A.A.A.A.A.A.A.A.A.D.S.A.S.V.V.J.o.*.H.V.S.D.A.A.A.A.A.A.A.A.A.A.A.A.A.A.A.A.A.A.A.A.A.A.A.A.A.A.",
"A.A.A.A.A.A.A.A.A.A.A.A.A.A.A.A.A.A.A.A.A.A.A.A.A.A.A.S.S.B.B.F.o.*.J.V.S.D.p.A.A.A.A.A.A.A.A.a.A.A.A.A.A.A.A.A.A.A.A.A.A.A.A.A.",
"A.A.A.A.A.A.A.A.A.A.A.A.A.A.A.A.A.A.A.A.A.A.A.A.A.A.A.A.S.A.A.F.X.%.F.B.A.D.A.A.A.A.A.A.A.A.A.a.A.A.A.A.A.A.A.A.A.A.A.A.A.A.A.A.",
"A.A.A.A.A.A.A.A.A.A.A.A.A.A.A.A.A.A.A.A.A.A.A.A.A.A.A.A.A.A.A.R.X.%.F.B.A.D.A.A.A.A.A.A.A.A.a.a.A.A.A.A.A.A.A.A.A.A.A.A.A.A.A.A.",
"A.A.A.A.A.A.A.A.A.A.A.A.A.A.A.A.A.A.A.A.A.A.A.A.A.A.A.A.A.A.A.R.#.%.F.B.A.D.A.A.A.A.A.A.A.A.a.a.A.A.A.A.A.A.A.A.A.A.A.A.A.A.A.A.",
"A.A.A.A.A.A.A.A.A.A.A.A.A.A.A.A.A.A.A.A.A.A.A.A.A.A.A.A.A.p.p.Y.#.%.F.B.A.D.A.A.A.A.A.A.A.a.a.a.A.A.A.A.A.A.A.A.A.A.A.A.A.A.A.A.",
"A.A.A.A.A.A.A.A.A.A.A.A.A.A.A.A.A.A.A.A.A.A.A.A.A.A.A.A.D.p.p.Y.#.%.F.B.A.D.p.A.A.A.A.A.A.a.a.a.A.A.A.A.A.A.A.A.A.A.A.A.A.A.A.A.",
"A.A.A.A.A.A.A.A.A.A.A.A.A.A.A.A.A.A.A.A.A.A.A.A.A.A.A.A.D.p.p.Y.#.%.F.B.A.D.p.A.A.A.A.A.A.a.a.a.A.A.A.A.A.A.A.A.A.A.A.A.A.A.A.A."
};
