/* XPM */
static char *df4158a714624b1fd5c81b4f18cc3c2ceBNUcrFMqiS8jtYC[] = {
/* columns rows colors chars-per-pixel */
"64 64 230 2 ",
"   c #0B2C00",
".  c #062B0B",
"X  c #083309",
"o  c #183509",
"O  c #002D14",
"+  c #012D1B",
"@  c #002713",
"#  c #132F12",
"$  c #013414",
"%  c #023A16",
"&  c #0B3B14",
"*  c #02351C",
"=  c #033C1E",
"-  c #0A3C1D",
";  c #0E3516",
":  c #123C1F",
">  c #143516",
",  c #122E08",
"<  c #27290B",
"1  c #22320E",
"2  c #252A17",
"3  c #302011",
"4  c #263917",
"5  c #012D24",
"6  c #033423",
"7  c #043F23",
"8  c #0A3D24",
"9  c #04362A",
"0  c #0A372C",
"q  c #053C2A",
"w  c #0B3D2B",
"e  c #0B3721",
"r  c #133B29",
"t  c #002D35",
"y  c #093431",
"u  c #0B3D33",
"i  c #08353C",
"p  c #0B3D3B",
"a  c #033639",
"s  c #133C38",
"d  c #2F3920",
"f  c #31372B",
"g  c #03411E",
"h  c #19431C",
"j  c #2F401E",
"k  c #3A421D",
"l  c #034023",
"z  c #094125",
"x  c #054229",
"c  c #0B432A",
"v  c #0B4A2C",
"b  c #084826",
"n  c #124224",
"m  c #13442C",
"M  c #12492D",
"N  c #1D4C29",
"B  c #0D4232",
"V  c #024433",
"C  c #154632",
"Z  c #154C32",
"A  c #194F33",
"S  c #12433D",
"D  c #18483B",
"F  c #1D533A",
"G  c #21543F",
"H  c #235B3B",
"J  c #2C5938",
"K  c #224E37",
"L  c #3B653F",
"P  c #525A2C",
"I  c #4F533C",
"U  c #444F27",
"Y  c #794A2C",
"T  c #446A3B",
"R  c #66683B",
"E  c #714A11",
"W  c #053B45",
"Q  c #0C3C4C",
"!  c #083D49",
"~  c #153D47",
"^  c #0C3E50",
"/  c #0C4346",
"(  c #0A434C",
")  c #164145",
"_  c #14464D",
"`  c #19444B",
"'  c #194A48",
"]  c #0C4553",
"[  c #144454",
"{  c #1B4A55",
"}  c #144A5B",
"|  c #154758",
" . c #1D5358",
".. c #215544",
"X. c #2A5E44",
"o. c #295948",
"O. c #275656",
"+. c #315F5A",
"@. c #2A6245",
"#. c #2E624A",
"$. c #246046",
"%. c #32664D",
"&. c #36684D",
"*. c #2D6258",
"=. c #3A6C55",
"-. c #31655B",
";. c #396D5E",
":. c #366957",
">. c #3C7256",
",. c #3E7359",
"<. c #37755C",
"1. c #1D5762",
"2. c #154961",
"3. c #235364",
"4. c #2C5C6B",
"5. c #355E64",
"6. c #326363",
"7. c #386D62",
"8. c #376369",
"9. c #387666",
"0. c #2F6273",
"q. c #396979",
"w. c #415E48",
"e. c #625F5A",
"r. c #4E754B",
"t. c #5E6A5A",
"y. c #417356",
"u. c #43795F",
"i. c #43765D",
"p. c #537E5D",
"a. c #4B6D44",
"s. c #6A6E5D",
"d. c #706F53",
"f. c #436D66",
"g. c #466E6E",
"h. c #457265",
"j. c #467B62",
"k. c #4A7E64",
"l. c #44726B",
"z. c #467667",
"x. c #587868",
"c. c #4E7D74",
"v. c #487777",
"b. c #527C74",
"n. c #547D79",
"m. c #507679",
"M. c #456D79",
"N. c #A85619",
"B. c #BD5812",
"V. c #AD7134",
"C. c #C84E0A",
"Z. c #DF5910",
"A. c #C3540F",
"S. c #E85F17",
"D. c #D8641C",
"F. c #CC7738",
"G. c #D97D3C",
"H. c #CE6725",
"J. c #8A6F4C",
"K. c #967E62",
"L. c #578153",
"P. c #79885F",
"I. c #4B8167",
"U. c #4D8369",
"Y. c #52816D",
"T. c #4C867B",
"R. c #57857A",
"E. c #64917D",
"W. c #738C72",
"Q. c #9B8755",
"!. c #B1854C",
"~. c #B6935E",
"^. c #B98553",
"/. c #8B806E",
"(. c #9A9476",
"). c #AB9B67",
"_. c #AD9D74",
"`. c #B69761",
"'. c #B8AA78",
"]. c #A1A27A",
"[. c #CB8F51",
"{. c #D08E54",
"}. c #D09D5E",
"|. c #C68649",
" X c #E98742",
".X c #F38C49",
"XX c #DE9962",
"oX c #CEB179",
"OX c #FBBE7F",
"+X c #EBA96F",
"@X c #497B8C",
"#X c #567989",
"$X c #598689",
"%X c #5F928A",
"&X c #5A8B9B",
"*X c #558899",
"=X c #4D8294",
"-X c #648D8C",
";X c #628D83",
":X c #6A9484",
">X c #638B98",
",X c #6D9493",
"<X c #68979D",
"1X c #769E9A",
"2X c #739A87",
"3X c #75A299",
"4X c #75A18A",
"5X c #5890A1",
"6X c #6895A3",
"7X c #7BA6A9",
"8X c #6EA3AB",
"9X c #A09488",
"0X c #8BA78A",
"qX c #8AB19F",
"wX c #95BB97",
"eX c #8FA896",
"rX c #A6A296",
"tX c #8BB5A9",
"yX c #90B2BE",
"uX c #85AEB2",
"iX c #E7B882",
"pX c #C8B9A4",
"aX c #9BC18E",
"sX c #A9CE9B",
"dX c #96C0AA",
"fX c #B8CBAF",
"gX c #C1CCAC",
"hX c #C6EBBF",
"jX c #9CC8D5",
"kX c #D3F4C7",
/* pixels */
"7 7 7 7 7 7 7 7 7 7 7 7 7 7 7 7 7 7 7 7 7 7 7 7 7 7 7 7 7 7 7 7 7 7 7 7 7 7 7 7 7 7 7 7 7 7 7 7 7 7 7 7 7 7 7 7 7 7 7 7 7 7 7 7 ",
"7 7 7 7 7 7 7 7 7 7 7 7 7 7 7 7 7 7 7 7 7 7 7 7 7 7 7 7 7 7 7 7 7 7 7 7 7 7 7 7 7 7 7 7 7 7 7 7 7 7 7 7 7 7 7 7 7 7 7 7 7 7 7 7 ",
"7 7 7 7 7 7 7 7 7 7 7 7 7 7 7 7 7 7 7 7 7 7 7 7 7 7 7 7 7 7 7 7 7 7 7 7 7 7 7 7 7 7 7 7 7 7 7 7 7 7 7 7 7 7 7 7 7 7 7 7 7 7 7 7 ",
"7 7 7 7 7 7 7 7 7 7 7 7 7 7 7 7 7 7 7 7 7 7 7 7 7 7 7 7 7 7 7 7 7 7 7 7 7 7 7 7 7 7 7 7 7 7 7 7 7 7 7 7 7 7 7 7 7 7 7 7 7 7 7 7 ",
"7 7 7 7 7 7 7 7 7 7 7 7 7 7 7 7 7 7 7 7 7 7 7 7 7 7 7 7 7 7 7 7 7 7 7 7 7 7 7 7 7 7 7 7 7 7 7 7 7 7 7 7 7 7 7 7 7 7 7 7 7 7 7 7 ",
"7 7 7 7 7 7 7 7 7 7 7 7 7 7 7 7 7 7 7 7 7 7 7 7 7 7 7 7 7 7 7 7 7 7 7 7 7 7 7 7 7 7 7 7 7 7 7 7 7 7 7 7 7 7 7 7 7 7 7 7 7 7 7 7 ",
"7 7 7 7 7 7 7 7 7 7 7 7 7 7 7 7 7 7 7 7 7 7 7 7 7 7 7 7 7 7 7 7 7 7 7 7 7 7 7 7 7 7 7 7 7 7 7 7 7 7 7 7 7 7 7 7 7 7 7 7 7 7 7 7 ",
"7 7 7 7 7 7 7 7 7 7 7 7 7 7 7 7 7 7 7 7 7 7 7 7 7 7 7 7 7 7 7 7 7 7 7 7 7 7 7 7 7 7 7 7 7 7 7 7 7 7 7 7 7 7 7 7 7 7 7 7 7 7 7 7 ",
"7 7 7 7 7 7 7 7 7 7 7 7 7 7 7 7 7 7 7 7 7 7 7 7 7 7 7 7 7 7 7 7 7 7 7 7 7 7 7 7 7 7 7 7 7 7 7 7 7 7 7 7 7 7 7 7 7 7 7 7 7 7 7 7 ",
"7 7 7 7 7 7 7 7 7 7 7 7 7 7 7 7 7 7 7 7 7 7 7 7 7 7 7 7 7 7 7 7 7 7 7 7 7 7 7 7 7 7 7 7 7 7 7 7 7 7 7 7 7 7 7 7 7 7 7 7 7 7 7 7 ",
"7 7 7 7 7 7 7 7 7 7 7 7 7 7 7 7 7 7 7 7 7 7 7 7 7 7 7 7 7 7 7 7 7 7 7 7 7 7 7 7 7 7 7 7 7 7 7 7 7 7 7 7 7 7 7 7 7 7 7 7 7 7 7 7 ",
"7 7 7 7 7 7 7 7 7 7 7 7 7 7 7 7 7 7 7 7 7 7 7 7 7 7 7 7 7 7 7 7 7 7 7 7 7 7 7 7 7 7 7 7 7 7 7 7 7 7 7 7 7 7 7 7 7 7 7 7 7 7 7 7 ",
"7 7 7 7 7 7 7 7 7 7 7 7 7 7 7 7 7 7 7 7 7 7 7 7 7 7 7 7 7 7 7 7 7 7 7 7 7 7 7 7 7 7 7 7 7 7 7 7 7 7 7 7 7 7 7 7 7 7 7 7 7 7 7 7 ",
"7 7 7 7 7 7 7 7 7 7 7 7 7 7 7 7 7 7 7 7 7 7 7 7 7 7 7 7 7 7 7 7 7 7 7 7 7 7 7 7 7 7 7 7 7 7 7 7 7 7 7 7 7 7 7 7 7 7 7 7 7 7 7 7 ",
"7 7 7 7 7 7 7 7 7 7 7 7 7 7 7 7 7 7 7 7 7 7 7 7 7 7 7 7 7 7 7 7 7 7 7 7 7 7 7 7 7 7 7 7 7 7 7 7 7 7 7 7 7 7 7 7 7 7 7 7 7 7 7 7 ",
"7 7 7 7 7 7 7 7 7 7 7 7 7 7 7 7 7 7 7 7 7 7 7 7 7 7 7 7 7 7 7 7 l 7 7 7 7 7 8 7 7 7 l l 7 7 7 7 7 7 7 7 7 7 7 7 7 7 7 7 7 7 7 7 ",
"7 7 7 7 7 7 7 7 7 7 7 7 7 7 7 7 7 7 7 7 7 7 7 7 z 7 7 q 7 7 7 x x * M e = 8 m e 8 7 l x 8 n * = 7 7 7 7 7 7 7 7 7 7 7 7 7 7 7 7 ",
"7 7 7 7 7 7 7 7 7 7 7 7 7 7 7 7 7 7 7 7 7 7 7 7 7 c 7 q 6 v z l 7 z > # r # . # > n $ l * $ % = 7 7 7 7 7 7 7 7 7 7 7 7 7 7 7 7 ",
"7 7 7 7 7 7 7 7 7 7 7 7 7 7 7 7 7 7 7 7 7 = 7 7 7 c 7 7 * z = % & > 1 k P R R P 4 o & % z z v = l 7 7 7 7 7 7 7 7 7 7 7 7 7 7 7 ",
"7 7 7 7 7 7 7 7 7 7 7 7 7 7 7 7 7 7 7 7 7 l 7 7 7 7 7 7 - $ & h , d.(._.`.!.!.~.~.J.P   r 7 7 7 7 7 7 7 7 7 7 7 7 7 7 7 7 7 7 7 ",
"7 7 7 7 7 7 7 7 7 7 7 7 7 7 7 7 7 7 7 7 l l l l 7 7 = z - h J r.0Xs.d.J.N.B.D.C.H.F.}.Q.2 r u q 7 7 7 7 7 7 7 7 7 7 7 7 7 7 7 7 ",
"7 7 7 7 7 7 7 7 7 7 7 7 7 7 7 7 7 7 7 l l l l l 7 v * z & a.W.wXW.2 3 Y F.D.Z.S.C.A.N.^.pXf r w 7 7 7 7 7 7 7 7 7 7 7 7 7 7 7 7 ",
"7 7 7 7 7 7 7 7 7 7 7 7 7 7 7 7 7 7 7 l l l l l 7 c z & N L.aXhXwXw.t.J.[. X.X X.XG.G.V.J.9Xd 4 e 7 7 7 7 7 7 7 7 7 7 7 7 7 7 7 ",
"7 7 7 7 7 7 7 7 7 7 7 7 7 7 7 7 7 7 7 l l l l l v * M $ L r.sXkX0Xx.t.< E V.|.{.XX+XOXiXK./.(.1 - 7 7 7 7 7 7 7 7 7 7 7 7 7 7 7 ",
"7 7 7 7 7 7 7 7 7 7 7 7 7 7 7 7 7 7 7 l l l l l x * 8 & p.h T a.I rXe.3 ).oX'.'._.).).'.gXfXP.4 - 7 7 7 7 7 7 7 7 7 7 7 7 7 7 7 ",
"7 7 7 7 7 7 7 7 7 7 7 7 7 7 7 7 7 7 l l l l l l 7 8 8 = p.h o , d s.W.eX].R U d 4 o o o : N h X - 7 7 7 7 7 7 7 7 7 7 7 7 7 7 7 ",
"7 7 7 7 7 7 7 7 7 7 7 7 7 7 7 7 7 7 l l g l 7 l x * q C k.: ; - - * %.y.o   ; ; : - & - 7 7 g g l 7 7 7 7 7 7 7 7 7 7 7 7 7 7 7 ",
"7 7 7 7 7 7 7 7 7 7 7 7 7 7 7 7 7 7 7 l g = 7 7 7 q u D R.e w z g $ <.$.X N 8 w w 0 7 x V V l l l 7 7 7 7 7 7 7 7 7 7 7 7 7 7 7 ",
"7 7 7 7 7 7 7 7 7 7 7 7 7 7 7 7 7 l 7 l = = 7 7 6 D 5 S c.9 9 9 z * o.=.= 8 5 s y y 0 q 9 7 7 g l 7 7 7 7 7 7 7 7 7 7 7 7 7 7 7 ",
"7 7 7 7 7 7 7 7 7 7 7 7 7 7 7 7 7 l 7 = = = 8 8 w 9 9 T.v.a / p 9 0 0 R...7 u u y u B c w 8 = = 7 7 7 7 7 7 7 7 7 7 7 7 7 7 7 7 ",
"7 7 7 7 7 7 7 7 7 7 7 7 7 7 7 7 7 7 7 = = - 8 8 w 9 7.7X<X/ / W ] [ a v.9.l v $ l = * * 7 8 c c 7 7 7 7 7 7 7 7 7 7 7 7 7 7 7 7 ",
"7 7 7 7 7 7 7 7 7 7 7 7 7 7 7 7 7 7 7 = = - - 8 6 ..v.6.8X .( 1.2.| {  .T.7 = g g g l b z = 7 7 7 7 7 7 7 7 7 7 7 7 7 7 7 7 7 7 ",
"7 7 7 7 7 7 7 7 7 7 7 7 7 7 7 7 7 7 7 = g g - 8 6 l.5.M.6X3.| | [ } { O.9.7 c * - - 7 7 7 7 7 7 7 7 7 7 7 7 7 7 7 7 7 7 7 7 7 7 ",
"7 7 7 7 7 7 7 7 7 7 7 7 7 7 7 7 7 7 7 g g g g 8 6 n.O.#X6X[ { Q ^ Q t v.3XC * m 8 e 8 7 7 7 7 l 7 7 7 7 7 7 7 7 7 7 7 7 7 7 7 7 ",
"7 7 7 7 7 7 7 7 7 7 7 7 7 7 7 7 7 7 l g g g g 7 w R.` 6X#Xq.&X&X@Xq.<XyX3Xo.* 7 8 7 7 7 7 7 l l 7 7 7 7 7 7 7 7 7 7 7 7 7 7 7 7 ",
"7 7 7 7 7 7 7 7 7 7 7 7 7 7 7 7 7 7 l g g g g 7 B $X) jX0.6X3.^ 0.&X6XO.-...7 c 7 7 7 7 7 l l l 7 7 7 7 7 7 7 7 7 7 7 7 7 7 7 7 ",
"7 7 7 7 7 7 7 7 7 7 7 7 7 7 7 7 7 7 l g g g l 7 w v.{ 8.W 4.=X5X*Xq.a a %Xq 7 * 7 7 7 7 l l l l 7 7 7 7 7 7 7 7 7 7 7 7 7 7 7 7 ",
"7 7 7 7 7 7 7 7 7 7 7 7 7 7 7 7 7 7 l l g g l 7 q %X_ _ [ } } | ^ [ _ O.R.6 Z 7 7 7 7 7 l l l g 7 7 7 7 7 7 7 7 7 7 7 7 7 7 7 7 ",
"7 7 7 7 7 7 7 7 7 7 7 7 7 7 7 7 7 7 l l l l z 7 + c.+.i 3.Q } | [ { / 6.l.B * v 7 7 7 7 7 l l g 7 7 7 7 7 7 7 7 7 7 7 7 7 7 7 7 ",
"7 7 7 7 7 7 7 7 7 7 7 7 7 7 7 7 7 7 7 7 l z 7 8 6 +.v.~ [ [ } } | { p %X' 6 B 7 7 7 7 7 7 7 l g 7 7 7 7 7 7 7 7 7 7 7 7 7 7 7 7 ",
"7 7 7 7 7 7 7 7 z z z z z z z z 7 z * c c * c e 6 r -X` { | [ } { ~ O.-X9 c 9 8 8 8 8 7 7 7 7 l 7 7 7 7 7 7 7 7 z z 7 7 7 7 7 7 ",
"z z z z z z z z 7 7 7 7 7 7 7 7 7 M 7 O * 8 * m z.3Xn.) { [ ^ Q ` ) 3XO.0 w e w 8 8 8 8 8 8 8 8 7 7 7 7 7 7 8 8 * * 7 7 z z z 8 ",
"z z z z z z z z z z z z z z z z = = M 8 M 8 e E.qX:XR.s i 4.3.>X$X-X,X0 + e * z * * * * * * * * 7 7 7 7 7 7 7 7 z z 8 7 7 7 7 7 ",
"* * * * * * * * * * * * * * * * = O * * 6 @ r tX2X:Xb.S $X=X@Xq.$XtXb.r h.i.i.>.I.k.j.j.>.=.&.%.A Z Z c z 7 * * * * * * * 7 7 z ",
",.,.,.,.,.,.,.,.,.,.,.,.,.,.,.>.>.=.>.=.=.,.k.4XdXqX+ b.6.{ ! a 7Xf.h.E.X.X.A H Z Z F G X.@.#.%.k.k.k.I.I.U.U.U.u.u.u.j.j.j.k.k.",
"X.X.X.X.X.X.X.X.X.X.X.X.X.X.X.X.H H @.@.#.%.X.m J K r b.p ! } W O.o.Y.* - $ = $ * 7 7 7 7 * * * O $ * 7 8 c M Z F F F F F Z M M ",
"* * * * * * * * * * * * * * * * = % % * * 7 e * O r @ b.6._ ] 3.5 o.&.* z g M * 7 7 7 7 7 7 7 7 c c c 8 8 7 7 7 * * * 7 7 7 * * ",
"8 8 8 8 8 8 8 8 8 8 8 8 8 8 8 z = g z 7 z c = 8 n e 8 f.O._ [ ! u ;.#.* = g * l l z z 7 7 7 7 7 7 7 7 7 7 7 7 7 c z 7 7 7 7 8 z ",
"7 7 7 7 7 7 7 7 7 7 7 7 7 7 7 7 7 7 7 7 g l = = * 8 6 f.8.~ ~ M.p -.:.+ c z $ = 7 7 7 7 7 7 7 7 7 7 7 7 7 7 7 7 7 7 7 7 7 7 7 7 ",
"7 7 7 7 7 7 7 7 7 7 7 7 7 7 7 7 7 7 7 7 g g g g z 8 6 n.` ,X#XyXt -.;.w 7 * 7 l 7 7 7 7 7 7 7 l 7 7 7 7 7 7 7 7 7 7 7 7 7 7 7 7 ",
"7 7 7 7 7 7 7 7 7 7 7 7 7 7 7 7 7 7 7 7 g g g g * c ..z.g.uX#X7XS -.7.7 7 7 z = 7 7 7 7 7 7 7 l 7 7 7 7 7 7 7 7 7 7 7 7 7 7 7 7 ",
"7 7 7 7 7 7 7 7 7 7 7 7 7 7 7 7 7 7 7 7 g g g g z O o.l.l.m.-X,XS *.z.+ c c = = 7 7 7 7 7 7 7 l 7 7 7 7 7 7 7 7 7 7 7 7 7 7 7 7 ",
"7 7 7 7 7 7 7 7 7 7 7 7 7 7 7 7 7 7 7 7 g g g g z * :.:.c.f.-X1X5 7.;.6 c z * l 7 7 7 7 7 7 7 l 7 7 7 7 7 7 7 7 7 7 7 7 7 7 7 7 ",
"7 7 7 7 7 7 7 7 7 7 7 7 7 7 7 7 7 7 7 7 l g g g = * ,.#.z.1X,Xn.S T.D c 7 = l l 7 7 7 7 7 7 l l 7 7 7 7 7 7 7 7 7 7 7 7 7 7 7 7 ",
"7 7 7 7 7 7 7 7 7 7 7 7 7 7 7 7 7 7 7 7 l g g g z O M j.G 3X;Xh.7.7.6 7 7 = z 7 7 7 7 7 7 7 l l 7 7 7 7 7 7 7 7 7 7 7 7 7 7 7 7 ",
"7 7 7 7 7 7 7 7 7 7 7 7 7 7 7 7 7 7 7 7 7 l = g = z * >.:XC 6 R.;.q c 6 c * = 7 7 7 7 7 7 l l g 7 7 7 7 7 7 7 7 7 7 7 7 7 7 7 7 ",
"7 7 7 7 7 7 7 7 7 7 7 7 7 7 7 7 7 7 7 7 7 7 = = = = 7 8 c w 8 6 q q q 7 7 7 7 7 7 7 7 7 7 l l g 7 7 7 7 7 7 7 7 7 7 7 7 7 7 7 7 ",
"7 7 7 7 7 7 7 7 7 7 7 7 7 7 7 7 7 7 7 7 7 7 7 = 7 7 7 8 z 8 8 7 q q 7 7 7 7 7 7 7 7 7 7 7 l l g 7 7 7 7 7 7 7 7 7 7 7 7 7 7 7 7 ",
"7 7 7 7 7 7 7 7 7 7 7 7 7 7 7 7 7 7 7 7 7 7 7 7 z 7 7 7 z 8 7 7 q q 7 7 7 = 7 7 7 7 7 7 7 l l g 7 7 7 7 7 7 7 7 7 7 7 7 7 7 7 7 ",
"7 7 7 7 7 7 7 7 7 7 7 7 7 7 7 7 7 7 7 7 7 7 7 7 z 7 7 7 7 7 7 7 7 7 7 7 7 = 7 7 7 7 7 7 7 l g g 7 7 7 7 7 7 7 7 7 7 7 7 7 7 7 7 ",
"7 7 7 7 7 7 7 7 7 7 7 7 7 7 7 7 7 7 7 7 7 7 7 7 z 7 7 7 7 z l z 7 7 7 7 7 7 7 7 7 7 7 7 7 l l g 7 7 7 7 7 7 7 7 7 7 7 7 7 7 7 7 ",
"7 7 7 7 7 7 7 7 7 7 7 7 7 7 7 7 7 7 7 7 7 7 7 7 7 7 7 7 7 7 l z 7 7 7 7 7 7 7 7 7 7 7 7 7 l l l 7 7 7 7 7 7 7 7 7 7 7 7 7 7 7 7 ",
"7 7 7 7 7 7 7 7 7 7 7 7 7 7 7 7 l l 7 7 7 7 7 7 7 7 7 7 7 7 7 z 7 7 7 7 7 = 7 7 7 7 q 7 7 l l l 7 7 7 7 7 7 7 7 7 7 7 7 7 7 7 7 ",
"7 7 7 7 7 7 7 7 7 7 7 7 7 7 7 7 l l 7 7 7 7 7 7 7 7 7 7 z 7 7 7 7 7 7 7 7 = 7 7 7 7 q 7 7 l l l 7 7 7 7 7 7 7 7 7 7 7 7 7 7 7 7 "
};
